<mxfile host="app.diagrams.net" modified="2022-11-27T10:22:07.873Z" agent="5.0 (Windows NT 10.0; WOW64) AppleWebKit/537.36 (KHTML, like Gecko) Chrome/107.0.0.0 Safari/537.36" etag="w91S3rkngiOEKIt6R2G_" version="20.6.0" type="github" pages="2">
  <diagram id="WZG17EqYJcZCIr96m25o" name="Rough Layout">
    <mxGraphModel dx="584" dy="484" grid="1" gridSize="10" guides="1" tooltips="1" connect="1" arrows="1" fold="1" page="1" pageScale="1" pageWidth="1169" pageHeight="1654" math="0" shadow="0">
      <root>
        <mxCell id="0" />
        <mxCell id="1" parent="0" />
        <mxCell id="0nLYbQkV4qtQzDIt8yhV-7" style="edgeStyle=orthogonalEdgeStyle;rounded=0;orthogonalLoop=1;jettySize=auto;html=1;exitX=0.75;exitY=1;exitDx=0;exitDy=0;entryX=0.75;entryY=0;entryDx=0;entryDy=0;" parent="1" source="mxpOE_QP0UOJjElaqvsf-1" target="0nLYbQkV4qtQzDIt8yhV-1" edge="1">
          <mxGeometry relative="1" as="geometry" />
        </mxCell>
        <mxCell id="mxpOE_QP0UOJjElaqvsf-1" value="&lt;b&gt;ALU&lt;/b&gt;" style="whiteSpace=wrap;html=1;aspect=fixed;" parent="1" vertex="1">
          <mxGeometry x="340" y="230" width="80" height="80" as="geometry" />
        </mxCell>
        <mxCell id="0nLYbQkV4qtQzDIt8yhV-6" style="edgeStyle=orthogonalEdgeStyle;rounded=0;orthogonalLoop=1;jettySize=auto;html=1;exitX=0.25;exitY=0;exitDx=0;exitDy=0;entryX=0.25;entryY=1;entryDx=0;entryDy=0;" parent="1" source="0nLYbQkV4qtQzDIt8yhV-1" target="mxpOE_QP0UOJjElaqvsf-1" edge="1">
          <mxGeometry relative="1" as="geometry" />
        </mxCell>
        <mxCell id="0nLYbQkV4qtQzDIt8yhV-8" style="edgeStyle=orthogonalEdgeStyle;rounded=0;orthogonalLoop=1;jettySize=auto;html=1;exitX=1;exitY=0.5;exitDx=0;exitDy=0;entryX=0;entryY=0.5;entryDx=0;entryDy=0;" parent="1" source="0nLYbQkV4qtQzDIt8yhV-1" target="0nLYbQkV4qtQzDIt8yhV-2" edge="1">
          <mxGeometry relative="1" as="geometry" />
        </mxCell>
        <mxCell id="0nLYbQkV4qtQzDIt8yhV-1" value="&lt;b&gt;Memory&lt;/b&gt;" style="whiteSpace=wrap;html=1;aspect=fixed;" parent="1" vertex="1">
          <mxGeometry x="340" y="370" width="80" height="80" as="geometry" />
        </mxCell>
        <UserObject label="&lt;b&gt;Output&lt;/b&gt;" id="0nLYbQkV4qtQzDIt8yhV-2">
          <mxCell style="whiteSpace=wrap;html=1;aspect=fixed;" parent="1" vertex="1">
            <mxGeometry x="500" y="370" width="80" height="80" as="geometry" />
          </mxCell>
        </UserObject>
        <mxCell id="0nLYbQkV4qtQzDIt8yhV-9" value="" style="edgeStyle=orthogonalEdgeStyle;rounded=0;orthogonalLoop=1;jettySize=auto;html=1;" parent="1" source="0nLYbQkV4qtQzDIt8yhV-5" target="0nLYbQkV4qtQzDIt8yhV-1" edge="1">
          <mxGeometry relative="1" as="geometry" />
        </mxCell>
        <mxCell id="0nLYbQkV4qtQzDIt8yhV-5" value="&lt;b&gt;Input&lt;/b&gt;" style="whiteSpace=wrap;html=1;aspect=fixed;" parent="1" vertex="1">
          <mxGeometry x="180" y="370" width="80" height="80" as="geometry" />
        </mxCell>
      </root>
    </mxGraphModel>
  </diagram>
  <diagram id="5MDCU2lO4AsmFYOqIQbX" name="ALU">
    <mxGraphModel dx="1318" dy="1076" grid="1" gridSize="10" guides="1" tooltips="1" connect="1" arrows="1" fold="1" page="1" pageScale="1" pageWidth="2339" pageHeight="5000" math="0" shadow="0">
      <root>
        <mxCell id="0" />
        <mxCell id="1" parent="0" />
        <mxCell id="D6m1xR0_MITMy19pTEcO-79" style="edgeStyle=orthogonalEdgeStyle;shape=connector;rounded=0;jumpStyle=arc;orthogonalLoop=1;jettySize=auto;html=1;labelBackgroundColor=default;strokeColor=#000000;fontFamily=Helvetica;fontSize=15;fontColor=default;endArrow=classic;" edge="1" parent="1">
          <mxGeometry relative="1" as="geometry">
            <mxPoint x="1818.3399999999997" y="1064.047619047619" as="sourcePoint" />
            <mxPoint x="2008.64" y="1063.65" as="targetPoint" />
            <Array as="points">
              <mxPoint x="1920" y="1064" />
              <mxPoint x="1920" y="1064" />
            </Array>
          </mxGeometry>
        </mxCell>
        <mxCell id="XpKSy8zdJnigxvh0Xdh0-1" value="&lt;h1&gt;&lt;b&gt;ALU&lt;/b&gt;&lt;/h1&gt;" style="rounded=0;whiteSpace=wrap;html=1;verticalAlign=top;container=0;recursiveResize=0;expand=1;" parent="1" vertex="1">
          <mxGeometry x="308.34" y="280" width="1510" height="1100" as="geometry">
            <mxRectangle x="300" y="280" width="280" height="300" as="alternateBounds" />
          </mxGeometry>
        </mxCell>
        <mxCell id="Ue4OU11YRErOG5nvAcW0-4" style="edgeStyle=orthogonalEdgeStyle;rounded=0;orthogonalLoop=1;jettySize=auto;html=1;fontFamily=Helvetica;fontSize=22;fontColor=default;" parent="1" source="XpKSy8zdJnigxvh0Xdh0-21" edge="1">
          <mxGeometry relative="1" as="geometry">
            <mxPoint x="300" y="360" as="targetPoint" />
            <Array as="points">
              <mxPoint x="250" y="360" />
              <mxPoint x="250" y="360" />
            </Array>
          </mxGeometry>
        </mxCell>
        <mxCell id="XpKSy8zdJnigxvh0Xdh0-21" value="&lt;p&gt;&lt;font style=&quot;font-size: 12px;&quot;&gt;ALU_Input1&lt;/font&gt;&lt;/p&gt;" style="text;html=1;align=right;verticalAlign=middle;resizable=0;points=[];autosize=1;strokeColor=none;fillColor=none;fontSize=22;spacing=2;" parent="1" vertex="1">
          <mxGeometry x="112" y="320" width="90" height="80" as="geometry" />
        </mxCell>
        <mxCell id="Ue4OU11YRErOG5nvAcW0-17" style="edgeStyle=orthogonalEdgeStyle;rounded=0;orthogonalLoop=1;jettySize=auto;html=1;fontFamily=Helvetica;fontSize=22;fontColor=default;entryX=-0.001;entryY=0.113;entryDx=0;entryDy=0;entryPerimeter=0;" parent="1" source="XpKSy8zdJnigxvh0Xdh0-22" edge="1" target="XpKSy8zdJnigxvh0Xdh0-1">
          <mxGeometry relative="1" as="geometry">
            <mxPoint x="242" y="411" as="targetPoint" />
            <Array as="points">
              <mxPoint x="230" y="404" />
              <mxPoint x="230" y="404" />
            </Array>
          </mxGeometry>
        </mxCell>
        <mxCell id="XpKSy8zdJnigxvh0Xdh0-22" value="&lt;p&gt;&lt;font style=&quot;font-size: 12px;&quot;&gt;ALU_Input2&lt;/font&gt;&lt;/p&gt;" style="text;html=1;align=right;verticalAlign=middle;resizable=0;points=[];autosize=1;strokeColor=none;fillColor=none;fontSize=22;spacing=2;" parent="1" vertex="1">
          <mxGeometry x="112" y="360.00000000000006" width="90" height="80" as="geometry" />
        </mxCell>
        <mxCell id="Ue4OU11YRErOG5nvAcW0-21" style="edgeStyle=orthogonalEdgeStyle;rounded=0;orthogonalLoop=1;jettySize=auto;html=1;fontFamily=Helvetica;fontSize=22;fontColor=default;entryX=0;entryY=0.84;entryDx=0;entryDy=0;entryPerimeter=0;" parent="1" source="Ue4OU11YRErOG5nvAcW0-7" edge="1" target="XpKSy8zdJnigxvh0Xdh0-1">
          <mxGeometry relative="1" as="geometry">
            <mxPoint x="265" y="1200" as="targetPoint" />
            <Array as="points">
              <mxPoint x="250" y="1204" />
              <mxPoint x="250" y="1204" />
            </Array>
          </mxGeometry>
        </mxCell>
        <mxCell id="Ue4OU11YRErOG5nvAcW0-7" value="&lt;p&gt;&lt;font style=&quot;font-size: 12px;&quot;&gt;ALU_Operand&lt;/font&gt;&lt;/p&gt;" style="text;html=1;align=right;verticalAlign=middle;resizable=0;points=[];autosize=1;strokeColor=none;fillColor=none;fontSize=22;spacing=2;" parent="1" vertex="1">
          <mxGeometry x="117" y="1160" width="100" height="80" as="geometry" />
        </mxCell>
        <mxCell id="D6m1xR0_MITMy19pTEcO-57" style="edgeStyle=orthogonalEdgeStyle;shape=connector;rounded=0;jumpStyle=arc;orthogonalLoop=1;jettySize=auto;html=1;entryX=0;entryY=0.186;entryDx=0;entryDy=0;entryPerimeter=0;labelBackgroundColor=default;strokeColor=#00FF00;fontFamily=Helvetica;fontSize=22;fontColor=default;endArrow=classic;" edge="1" parent="1" source="XpKSy8zdJnigxvh0Xdh0-15" target="Ue4OU11YRErOG5nvAcW0-43">
          <mxGeometry relative="1" as="geometry" />
        </mxCell>
        <mxCell id="XpKSy8zdJnigxvh0Xdh0-15" value="&lt;h2&gt;&lt;b&gt;ADDER&lt;/b&gt;&lt;/h2&gt;" style="rounded=0;whiteSpace=wrap;html=1;" parent="1" vertex="1">
          <mxGeometry x="563.124798206278" y="388.85851778771826" width="170" height="71" as="geometry" />
        </mxCell>
        <mxCell id="Ue4OU11YRErOG5nvAcW0-33" style="edgeStyle=orthogonalEdgeStyle;shape=connector;rounded=0;jumpStyle=arc;orthogonalLoop=1;jettySize=auto;html=1;labelBackgroundColor=default;strokeColor=#FF0000;fontFamily=Helvetica;fontSize=22;fontColor=default;endArrow=classic;" parent="1" source="XpKSy8zdJnigxvh0Xdh0-16" target="Ue4OU11YRErOG5nvAcW0-32" edge="1">
          <mxGeometry relative="1" as="geometry">
            <Array as="points">
              <mxPoint x="420" y="360" />
              <mxPoint x="420" y="909" />
            </Array>
          </mxGeometry>
        </mxCell>
        <mxCell id="D6m1xR0_MITMy19pTEcO-47" style="edgeStyle=orthogonalEdgeStyle;shape=connector;rounded=0;jumpStyle=arc;orthogonalLoop=1;jettySize=auto;html=1;entryX=0;entryY=0.5;entryDx=0;entryDy=0;labelBackgroundColor=default;strokeColor=#FF0000;fontFamily=Helvetica;fontSize=22;fontColor=default;endArrow=classic;" edge="1" parent="1" source="XpKSy8zdJnigxvh0Xdh0-16" target="XpKSy8zdJnigxvh0Xdh0-10">
          <mxGeometry relative="1" as="geometry">
            <Array as="points">
              <mxPoint x="420" y="360" />
              <mxPoint x="420" y="592" />
            </Array>
          </mxGeometry>
        </mxCell>
        <mxCell id="D6m1xR0_MITMy19pTEcO-51" style="edgeStyle=orthogonalEdgeStyle;shape=connector;rounded=0;jumpStyle=arc;orthogonalLoop=1;jettySize=auto;html=1;entryX=0;entryY=0.25;entryDx=0;entryDy=0;labelBackgroundColor=default;strokeColor=#FF0000;fontFamily=Helvetica;fontSize=22;fontColor=default;endArrow=classic;" edge="1" parent="1" source="XpKSy8zdJnigxvh0Xdh0-16" target="Ue4OU11YRErOG5nvAcW0-29">
          <mxGeometry relative="1" as="geometry">
            <Array as="points">
              <mxPoint x="420" y="360" />
              <mxPoint x="420" y="741" />
            </Array>
          </mxGeometry>
        </mxCell>
        <mxCell id="D6m1xR0_MITMy19pTEcO-53" style="edgeStyle=orthogonalEdgeStyle;shape=connector;rounded=0;jumpStyle=arc;orthogonalLoop=1;jettySize=auto;html=1;entryX=0;entryY=0.25;entryDx=0;entryDy=0;labelBackgroundColor=default;strokeColor=#FF0000;fontFamily=Helvetica;fontSize=22;fontColor=default;endArrow=classic;" edge="1" parent="1" source="XpKSy8zdJnigxvh0Xdh0-16" target="XpKSy8zdJnigxvh0Xdh0-15">
          <mxGeometry relative="1" as="geometry">
            <Array as="points">
              <mxPoint x="420" y="360" />
              <mxPoint x="420" y="407" />
            </Array>
          </mxGeometry>
        </mxCell>
        <mxCell id="XpKSy8zdJnigxvh0Xdh0-16" value="&lt;p&gt;&lt;font style=&quot;font-size: 12px;&quot;&gt;ALU_Input1&lt;/font&gt;&lt;/p&gt;" style="text;html=1;align=left;verticalAlign=middle;resizable=0;points=[];autosize=1;strokeColor=none;fillColor=none;fontSize=22;strokeWidth=1;perimeter=rectanglePerimeter;spacing=0;&#xa;&#xa;edgeStyle=orthogonalEdgeStyle;shape=connector;rounded=0;jumpStyle=arc;orthogonalLoop=1;jettySize=auto;html=1;entryX=0.5;entryY=0;entryDx=0;entryDy=0;labelBackgroundColor=default;strokeColor=#FF0000;fontFamily=Helvetica;fontSize=22;fontColor=default;endArrow=classic;" parent="1" vertex="1">
          <mxGeometry x="312.3408071748879" y="320.00051334702255" width="80" height="80" as="geometry" />
        </mxCell>
        <mxCell id="D6m1xR0_MITMy19pTEcO-54" style="edgeStyle=orthogonalEdgeStyle;shape=connector;rounded=0;jumpStyle=arc;orthogonalLoop=1;jettySize=auto;html=1;entryX=0;entryY=0.75;entryDx=0;entryDy=0;labelBackgroundColor=default;strokeColor=#0000FF;fontFamily=Helvetica;fontSize=22;fontColor=default;endArrow=classic;" edge="1" parent="1" source="XpKSy8zdJnigxvh0Xdh0-17" target="XpKSy8zdJnigxvh0Xdh0-15">
          <mxGeometry relative="1" as="geometry">
            <Array as="points">
              <mxPoint x="400" y="400" />
              <mxPoint x="400" y="442" />
            </Array>
          </mxGeometry>
        </mxCell>
        <mxCell id="D6m1xR0_MITMy19pTEcO-55" style="edgeStyle=orthogonalEdgeStyle;shape=connector;rounded=0;jumpStyle=arc;orthogonalLoop=1;jettySize=auto;html=1;entryX=0;entryY=0.75;entryDx=0;entryDy=0;labelBackgroundColor=default;strokeColor=#0000FF;fontFamily=Helvetica;fontSize=22;fontColor=default;endArrow=classic;" edge="1" parent="1" source="XpKSy8zdJnigxvh0Xdh0-17" target="Ue4OU11YRErOG5nvAcW0-29">
          <mxGeometry relative="1" as="geometry">
            <Array as="points">
              <mxPoint x="400" y="400" />
              <mxPoint x="400" y="776" />
            </Array>
          </mxGeometry>
        </mxCell>
        <mxCell id="D6m1xR0_MITMy19pTEcO-56" style="edgeStyle=orthogonalEdgeStyle;shape=connector;rounded=0;jumpStyle=arc;orthogonalLoop=1;jettySize=auto;html=1;entryX=0;entryY=0.75;entryDx=0;entryDy=0;labelBackgroundColor=default;strokeColor=#0000FF;fontFamily=Helvetica;fontSize=22;fontColor=default;endArrow=classic;" edge="1" parent="1" source="XpKSy8zdJnigxvh0Xdh0-17" target="D6m1xR0_MITMy19pTEcO-50">
          <mxGeometry relative="1" as="geometry">
            <Array as="points">
              <mxPoint x="400" y="400" />
              <mxPoint x="400" y="943" />
            </Array>
          </mxGeometry>
        </mxCell>
        <mxCell id="XpKSy8zdJnigxvh0Xdh0-17" value="&lt;p&gt;&lt;font style=&quot;font-size: 12px;&quot;&gt;ALU_Input2&lt;/font&gt;&lt;/p&gt;" style="text;html=1;align=left;verticalAlign=middle;resizable=0;points=[];autosize=1;strokeColor=none;fillColor=none;fontSize=22;spacing=0;" parent="1" vertex="1">
          <mxGeometry x="312.3408071748879" y="360.0041067761807" width="80" height="80" as="geometry" />
        </mxCell>
        <mxCell id="Ue4OU11YRErOG5nvAcW0-45" style="edgeStyle=orthogonalEdgeStyle;shape=connector;rounded=0;jumpStyle=arc;orthogonalLoop=1;jettySize=auto;html=1;entryX=0.5;entryY=1;entryDx=0;entryDy=0;labelBackgroundColor=default;strokeColor=#FF33FF;fontFamily=Helvetica;fontSize=17;fontColor=default;endArrow=classic;" parent="1" source="Ue4OU11YRErOG5nvAcW0-5" target="Ue4OU11YRErOG5nvAcW0-43" edge="1">
          <mxGeometry relative="1" as="geometry">
            <Array as="points">
              <mxPoint x="1580" y="1200" />
            </Array>
          </mxGeometry>
        </mxCell>
        <mxCell id="Ue4OU11YRErOG5nvAcW0-5" value="&lt;p&gt;&lt;font style=&quot;font-size: 12px;&quot;&gt;ALU_Operand&lt;/font&gt;&lt;/p&gt;" style="text;html=1;align=left;verticalAlign=middle;resizable=0;points=[];autosize=1;strokeColor=none;fillColor=none;fontSize=22;spacing=0;" parent="1" vertex="1">
          <mxGeometry x="313.3408071748879" y="1159.9975359342916" width="100" height="80" as="geometry" />
        </mxCell>
        <mxCell id="D6m1xR0_MITMy19pTEcO-59" style="edgeStyle=orthogonalEdgeStyle;shape=connector;rounded=0;jumpStyle=arc;orthogonalLoop=1;jettySize=auto;html=1;entryX=0;entryY=0.443;entryDx=0;entryDy=0;entryPerimeter=0;labelBackgroundColor=default;strokeColor=#00FF00;fontFamily=Helvetica;fontSize=22;fontColor=default;endArrow=classic;" edge="1" parent="1" source="Ue4OU11YRErOG5nvAcW0-29" target="Ue4OU11YRErOG5nvAcW0-43">
          <mxGeometry relative="1" as="geometry">
            <Array as="points">
              <mxPoint x="970" y="759" />
              <mxPoint x="970" y="1054" />
            </Array>
          </mxGeometry>
        </mxCell>
        <mxCell id="Ue4OU11YRErOG5nvAcW0-29" value="&lt;h2&gt;&lt;b&gt;AND&lt;/b&gt;&lt;/h2&gt;" style="rounded=0;whiteSpace=wrap;html=1;" parent="1" vertex="1">
          <mxGeometry x="563.124798206278" y="723" width="170" height="71" as="geometry" />
        </mxCell>
        <mxCell id="Ue4OU11YRErOG5nvAcW0-32" value="&lt;h2&gt;&lt;b&gt;OR&lt;/b&gt;&lt;/h2&gt;" style="rounded=0;whiteSpace=wrap;html=1;" parent="1" vertex="1">
          <mxGeometry x="564.134798206278" y="889.9985177877182" width="166.81614349775785" height="38.64836325237591" as="geometry" />
        </mxCell>
        <mxCell id="Ue4OU11YRErOG5nvAcW0-54" value="" style="group" parent="1" vertex="1" connectable="0">
          <mxGeometry x="1360.27" y="966.71" width="270" height="216" as="geometry" />
        </mxCell>
        <mxCell id="Ue4OU11YRErOG5nvAcW0-50" value="&lt;font style=&quot;font-size: 10px;&quot;&gt;ALU_ADDER_Output&lt;/font&gt;" style="text;html=1;resizable=0;autosize=1;align=right;verticalAlign=middle;points=[];fillColor=none;strokeColor=none;rounded=0;fontFamily=Helvetica;fontSize=17;fontColor=default;spacing=4;" parent="Ue4OU11YRErOG5nvAcW0-54" vertex="1">
          <mxGeometry x="20" y="2" width="120" height="40" as="geometry" />
        </mxCell>
        <mxCell id="Ue4OU11YRErOG5nvAcW0-51" value="&lt;font style=&quot;font-size: 10px;&quot;&gt;ALU_INVERTER_Output&lt;/font&gt;" style="text;html=1;resizable=0;autosize=1;align=right;verticalAlign=middle;points=[];fillColor=none;strokeColor=none;rounded=0;fontFamily=Helvetica;fontSize=17;fontColor=default;spacing=4;" parent="Ue4OU11YRErOG5nvAcW0-54" vertex="1">
          <mxGeometry y="29" width="140" height="40" as="geometry" />
        </mxCell>
        <mxCell id="Ue4OU11YRErOG5nvAcW0-52" value="&lt;font style=&quot;font-size: 10px;&quot;&gt;ALU_AND_Output&lt;/font&gt;" style="text;html=1;resizable=0;autosize=1;align=right;verticalAlign=middle;points=[];fillColor=none;strokeColor=none;rounded=0;fontFamily=Helvetica;fontSize=17;fontColor=default;spacing=4;" parent="Ue4OU11YRErOG5nvAcW0-54" vertex="1">
          <mxGeometry x="30" y="58" width="110" height="40" as="geometry" />
        </mxCell>
        <mxCell id="Ue4OU11YRErOG5nvAcW0-53" value="&lt;font style=&quot;font-size: 10px;&quot;&gt;ALU_OR_Output&lt;/font&gt;" style="text;html=1;resizable=0;autosize=1;align=right;verticalAlign=middle;points=[];fillColor=none;strokeColor=none;rounded=0;fontFamily=Helvetica;fontSize=17;fontColor=default;spacing=4;" parent="Ue4OU11YRErOG5nvAcW0-54" vertex="1">
          <mxGeometry x="39" y="89" width="100" height="40" as="geometry" />
        </mxCell>
        <mxCell id="D6m1xR0_MITMy19pTEcO-74" style="edgeStyle=orthogonalEdgeStyle;shape=connector;rounded=0;jumpStyle=arc;orthogonalLoop=1;jettySize=auto;html=1;exitX=1;exitY=0.5;exitDx=0;exitDy=0;entryX=1;entryY=0.713;entryDx=0;entryDy=0;entryPerimeter=0;labelBackgroundColor=default;strokeColor=#000000;fontFamily=Helvetica;fontSize=22;fontColor=default;endArrow=classic;" edge="1" parent="1" target="XpKSy8zdJnigxvh0Xdh0-1">
          <mxGeometry relative="1" as="geometry">
            <mxPoint x="1650" y="1064" as="sourcePoint" />
            <mxPoint x="1810" y="1062.3" as="targetPoint" />
            <Array as="points">
              <mxPoint x="1810" y="1064" />
            </Array>
          </mxGeometry>
        </mxCell>
        <mxCell id="Ue4OU11YRErOG5nvAcW0-43" value="&lt;h2 style=&quot;font-size: 17px;&quot;&gt;INSTRUCTION&lt;br&gt;SELECTOR&lt;/h2&gt;" style="rounded=0;whiteSpace=wrap;html=1;fontFamily=Helvetica;fontSize=22;fontColor=default;fillColor=none;gradientColor=none;" parent="1" vertex="1">
          <mxGeometry x="1510" y="961" width="140" height="210" as="geometry" />
        </mxCell>
        <mxCell id="D6m1xR0_MITMy19pTEcO-58" style="edgeStyle=orthogonalEdgeStyle;shape=connector;rounded=0;jumpStyle=arc;orthogonalLoop=1;jettySize=auto;html=1;entryX=0;entryY=0.329;entryDx=0;entryDy=0;entryPerimeter=0;labelBackgroundColor=default;strokeColor=#00FF00;fontFamily=Helvetica;fontSize=22;fontColor=default;endArrow=classic;" edge="1" parent="1" source="XpKSy8zdJnigxvh0Xdh0-10" target="Ue4OU11YRErOG5nvAcW0-43">
          <mxGeometry relative="1" as="geometry">
            <Array as="points">
              <mxPoint x="1050" y="592" />
              <mxPoint x="1050" y="1030" />
            </Array>
          </mxGeometry>
        </mxCell>
        <mxCell id="XpKSy8zdJnigxvh0Xdh0-10" value="&lt;h2&gt;&lt;b&gt;INVERTER&lt;/b&gt;&lt;/h2&gt;" style="rounded=0;whiteSpace=wrap;html=1;" parent="1" vertex="1">
          <mxGeometry x="563.124798206278" y="556" width="170" height="71" as="geometry" />
        </mxCell>
        <mxCell id="D6m1xR0_MITMy19pTEcO-61" style="edgeStyle=orthogonalEdgeStyle;shape=connector;rounded=0;jumpStyle=arc;orthogonalLoop=1;jettySize=auto;html=1;entryX=0.014;entryY=0.605;entryDx=0;entryDy=0;entryPerimeter=0;labelBackgroundColor=default;strokeColor=#00FF00;fontFamily=Helvetica;fontSize=22;fontColor=default;endArrow=classic;" edge="1" parent="1" source="D6m1xR0_MITMy19pTEcO-50" target="Ue4OU11YRErOG5nvAcW0-43">
          <mxGeometry relative="1" as="geometry">
            <Array as="points">
              <mxPoint x="900" y="926" />
              <mxPoint x="900" y="1088" />
            </Array>
          </mxGeometry>
        </mxCell>
        <mxCell id="D6m1xR0_MITMy19pTEcO-50" value="&lt;h2&gt;&lt;b&gt;OR&lt;/b&gt;&lt;/h2&gt;" style="rounded=0;whiteSpace=wrap;html=1;" vertex="1" parent="1">
          <mxGeometry x="563.124798206278" y="889.9985177877182" width="170" height="71" as="geometry" />
        </mxCell>
        <mxCell id="D6m1xR0_MITMy19pTEcO-62" value="&lt;font style=&quot;font-size: 10px;&quot;&gt;ALU_ADDER_Output&lt;/font&gt;" style="text;html=1;resizable=0;autosize=1;align=right;verticalAlign=middle;points=[];fillColor=none;strokeColor=none;rounded=0;fontFamily=Helvetica;fontSize=17;fontColor=default;spacing=4;" vertex="1" parent="1">
          <mxGeometry x="727" y="388.86" width="120" height="40" as="geometry" />
        </mxCell>
        <mxCell id="D6m1xR0_MITMy19pTEcO-63" value="&lt;font style=&quot;font-size: 10px;&quot;&gt;ALU_INVERTER_Output&lt;/font&gt;" style="text;html=1;resizable=0;autosize=1;align=right;verticalAlign=middle;points=[];fillColor=none;strokeColor=none;rounded=0;fontFamily=Helvetica;fontSize=17;fontColor=default;spacing=4;" vertex="1" parent="1">
          <mxGeometry x="727" y="556" width="140" height="40" as="geometry" />
        </mxCell>
        <mxCell id="D6m1xR0_MITMy19pTEcO-64" value="&lt;font style=&quot;font-size: 10px;&quot;&gt;ALU_AND_Output&lt;/font&gt;" style="text;html=1;resizable=0;autosize=1;align=right;verticalAlign=middle;points=[];fillColor=none;strokeColor=none;rounded=0;fontFamily=Helvetica;fontSize=17;fontColor=default;spacing=4;" vertex="1" parent="1">
          <mxGeometry x="727" y="723" width="110" height="40" as="geometry" />
        </mxCell>
        <mxCell id="D6m1xR0_MITMy19pTEcO-65" value="&lt;font style=&quot;font-size: 10px;&quot;&gt;ALU_OR_Output&lt;/font&gt;" style="text;html=1;resizable=0;autosize=1;align=right;verticalAlign=middle;points=[];fillColor=none;strokeColor=none;rounded=0;fontFamily=Helvetica;fontSize=17;fontColor=default;spacing=4;" vertex="1" parent="1">
          <mxGeometry x="727" y="890" width="100" height="40" as="geometry" />
        </mxCell>
        <mxCell id="D6m1xR0_MITMy19pTEcO-75" value="&lt;p style=&quot;font-size: 15px;&quot;&gt;ALU_Output&lt;/p&gt;" style="text;html=1;align=right;verticalAlign=middle;resizable=0;points=[];autosize=1;strokeColor=none;fillColor=none;fontSize=15;fontFamily=Helvetica;fontColor=default;rounded=0;spacing=4;" vertex="1" parent="1">
          <mxGeometry x="1630.27" y="1015" width="110" height="70" as="geometry" />
        </mxCell>
        <mxCell id="D6m1xR0_MITMy19pTEcO-82" value="&lt;p style=&quot;font-size: 15px;&quot;&gt;ALU_Output&lt;/p&gt;" style="text;html=1;align=right;verticalAlign=middle;resizable=0;points=[];autosize=1;strokeColor=none;fillColor=none;fontSize=15;fontFamily=Helvetica;fontColor=default;rounded=0;spacing=4;" vertex="1" parent="1">
          <mxGeometry x="1990" y="1030" width="110" height="70" as="geometry" />
        </mxCell>
        <mxCell id="D6m1xR0_MITMy19pTEcO-83" value="&lt;h1&gt;ADDER&lt;/h1&gt;" style="text;html=1;align=center;verticalAlign=middle;resizable=0;points=[];autosize=1;strokeColor=none;fillColor=none;fontSize=15;fontFamily=Helvetica;fontColor=default;" vertex="1" parent="1">
          <mxGeometry x="313.34000000000003" y="1600" width="130" height="90" as="geometry" />
        </mxCell>
        <mxCell id="D6m1xR0_MITMy19pTEcO-84" value="" style="verticalLabelPosition=bottom;shadow=0;dashed=0;align=center;html=1;verticalAlign=top;shape=mxgraph.electrical.logic_gates.logic_gate;operation=and;fontFamily=Helvetica;fontSize=15;fontColor=default;fillColor=none;gradientColor=none;" vertex="1" parent="1">
          <mxGeometry x="443.34000000000003" y="1730" width="100" height="60" as="geometry" />
        </mxCell>
        <mxCell id="D6m1xR0_MITMy19pTEcO-86" value="&lt;p&gt;&lt;font style=&quot;font-size: 12px;&quot;&gt;ALU_Input1&lt;/font&gt;&lt;/p&gt;" style="text;html=1;align=right;verticalAlign=middle;resizable=0;points=[];autosize=1;strokeColor=none;fillColor=none;fontSize=22;spacing=2;" vertex="1" parent="1">
          <mxGeometry x="340" y="1700" width="90" height="80" as="geometry" />
        </mxCell>
        <mxCell id="D6m1xR0_MITMy19pTEcO-87" value="&lt;p&gt;&lt;font style=&quot;font-size: 12px;&quot;&gt;ALU_Input2&lt;/font&gt;&lt;/p&gt;" style="text;html=1;align=right;verticalAlign=middle;resizable=0;points=[];autosize=1;strokeColor=none;fillColor=none;fontSize=22;spacing=2;" vertex="1" parent="1">
          <mxGeometry x="340" y="1730" width="90" height="80" as="geometry" />
        </mxCell>
        <mxCell id="D6m1xR0_MITMy19pTEcO-92" value="&lt;font style=&quot;font-size: 10px;&quot;&gt;ALU_ADDER_Output&lt;/font&gt;" style="text;html=1;resizable=0;autosize=1;align=right;verticalAlign=middle;points=[];fillColor=none;strokeColor=none;rounded=0;fontFamily=Helvetica;fontSize=17;fontColor=default;spacing=4;" vertex="1" parent="1">
          <mxGeometry x="530" y="1740" width="120" height="40" as="geometry" />
        </mxCell>
        <mxCell id="D6m1xR0_MITMy19pTEcO-93" value="&lt;h1&gt;INSTRUCTION SELECTOR&lt;/h1&gt;" style="text;html=1;align=left;verticalAlign=middle;resizable=0;points=[];autosize=1;strokeColor=none;fillColor=none;fontSize=15;fontFamily=Helvetica;fontColor=default;" vertex="1" parent="1">
          <mxGeometry x="312.34000000000003" y="1960" width="400" height="90" as="geometry" />
        </mxCell>
        <mxCell id="D6m1xR0_MITMy19pTEcO-97" style="edgeStyle=orthogonalEdgeStyle;shape=connector;rounded=0;jumpStyle=arc;orthogonalLoop=1;jettySize=auto;html=1;labelBackgroundColor=default;strokeColor=#000000;fontFamily=Helvetica;fontSize=15;fontColor=default;endArrow=classic;" edge="1" parent="1" source="D6m1xR0_MITMy19pTEcO-94" target="D6m1xR0_MITMy19pTEcO-96">
          <mxGeometry relative="1" as="geometry">
            <Array as="points">
              <mxPoint x="650" y="2200" />
              <mxPoint x="650" y="2200" />
            </Array>
          </mxGeometry>
        </mxCell>
        <mxCell id="D6m1xR0_MITMy19pTEcO-94" value="Mux" style="shadow=0;dashed=0;align=center;html=1;strokeWidth=1;shape=mxgraph.electrical.abstract.mux2;fontFamily=Helvetica;fontSize=15;fontColor=default;fillColor=none;gradientColor=none;selectorPins=3;" vertex="1" parent="1">
          <mxGeometry x="490" y="2100" width="146.66" height="210" as="geometry" />
        </mxCell>
        <mxCell id="D6m1xR0_MITMy19pTEcO-96" value="&lt;p style=&quot;font-size: 15px;&quot;&gt;ALU_Output&lt;/p&gt;" style="text;html=1;align=right;verticalAlign=middle;resizable=0;points=[];autosize=1;strokeColor=none;fillColor=none;fontSize=15;fontFamily=Helvetica;fontColor=default;rounded=0;spacing=4;" vertex="1" parent="1">
          <mxGeometry x="660" y="2167" width="110" height="70" as="geometry" />
        </mxCell>
        <mxCell id="D6m1xR0_MITMy19pTEcO-102" style="edgeStyle=orthogonalEdgeStyle;shape=connector;rounded=0;jumpStyle=arc;orthogonalLoop=1;jettySize=auto;html=1;entryX=0;entryY=0.05773809523809524;entryDx=0;entryDy=3;entryPerimeter=0;labelBackgroundColor=default;strokeColor=#000000;fontFamily=Helvetica;fontSize=15;fontColor=default;endArrow=classic;" edge="1" parent="1" source="D6m1xR0_MITMy19pTEcO-98" target="D6m1xR0_MITMy19pTEcO-94">
          <mxGeometry relative="1" as="geometry" />
        </mxCell>
        <mxCell id="D6m1xR0_MITMy19pTEcO-98" value="&lt;font style=&quot;font-size: 10px;&quot;&gt;ALU_ADDER_Output&lt;/font&gt;" style="text;html=1;resizable=0;autosize=1;align=right;verticalAlign=middle;points=[];fillColor=none;strokeColor=none;rounded=0;fontFamily=Helvetica;fontSize=17;fontColor=default;spacing=4;" vertex="1" parent="1">
          <mxGeometry x="281.34" y="2095" width="120" height="40" as="geometry" />
        </mxCell>
        <mxCell id="D6m1xR0_MITMy19pTEcO-103" style="edgeStyle=orthogonalEdgeStyle;shape=connector;rounded=0;jumpStyle=arc;orthogonalLoop=1;jettySize=auto;html=1;entryX=0;entryY=0.1732142857142857;entryDx=0;entryDy=3;entryPerimeter=0;labelBackgroundColor=default;strokeColor=#000000;fontFamily=Helvetica;fontSize=15;fontColor=default;endArrow=classic;" edge="1" parent="1" source="D6m1xR0_MITMy19pTEcO-99" target="D6m1xR0_MITMy19pTEcO-94">
          <mxGeometry relative="1" as="geometry" />
        </mxCell>
        <mxCell id="D6m1xR0_MITMy19pTEcO-99" value="&lt;font style=&quot;font-size: 10px;&quot;&gt;ALU_INVERTER_Output&lt;/font&gt;" style="text;html=1;resizable=0;autosize=1;align=right;verticalAlign=middle;points=[];fillColor=none;strokeColor=none;rounded=0;fontFamily=Helvetica;fontSize=17;fontColor=default;spacing=4;" vertex="1" parent="1">
          <mxGeometry x="261.34" y="2120" width="140" height="40" as="geometry" />
        </mxCell>
        <mxCell id="D6m1xR0_MITMy19pTEcO-104" style="edgeStyle=orthogonalEdgeStyle;shape=connector;rounded=0;jumpStyle=arc;orthogonalLoop=1;jettySize=auto;html=1;entryX=0;entryY=0.28869047619047616;entryDx=0;entryDy=3;entryPerimeter=0;labelBackgroundColor=default;strokeColor=#000000;fontFamily=Helvetica;fontSize=15;fontColor=default;endArrow=classic;" edge="1" parent="1" source="D6m1xR0_MITMy19pTEcO-100" target="D6m1xR0_MITMy19pTEcO-94">
          <mxGeometry relative="1" as="geometry" />
        </mxCell>
        <mxCell id="D6m1xR0_MITMy19pTEcO-100" value="&lt;font style=&quot;font-size: 10px;&quot;&gt;ALU_AND_Output&lt;/font&gt;" style="text;html=1;resizable=0;autosize=1;align=right;verticalAlign=middle;points=[];fillColor=none;strokeColor=none;rounded=0;fontFamily=Helvetica;fontSize=17;fontColor=default;spacing=4;" vertex="1" parent="1">
          <mxGeometry x="291.34" y="2144" width="110" height="40" as="geometry" />
        </mxCell>
        <mxCell id="D6m1xR0_MITMy19pTEcO-105" style="edgeStyle=orthogonalEdgeStyle;shape=connector;rounded=0;jumpStyle=arc;orthogonalLoop=1;jettySize=auto;html=1;entryX=0;entryY=0.4041666666666667;entryDx=0;entryDy=3;entryPerimeter=0;labelBackgroundColor=default;strokeColor=#000000;fontFamily=Helvetica;fontSize=15;fontColor=default;endArrow=classic;" edge="1" parent="1" source="D6m1xR0_MITMy19pTEcO-101" target="D6m1xR0_MITMy19pTEcO-94">
          <mxGeometry relative="1" as="geometry" />
        </mxCell>
        <mxCell id="D6m1xR0_MITMy19pTEcO-101" value="&lt;font style=&quot;font-size: 10px;&quot;&gt;ALU_OR_Output&lt;/font&gt;" style="text;html=1;resizable=0;autosize=1;align=right;verticalAlign=middle;points=[];fillColor=none;strokeColor=none;rounded=0;fontFamily=Helvetica;fontSize=17;fontColor=default;spacing=4;" vertex="1" parent="1">
          <mxGeometry x="301.34" y="2167" width="100" height="40" as="geometry" />
        </mxCell>
        <mxCell id="D6m1xR0_MITMy19pTEcO-106" value="&lt;p&gt;&lt;font style=&quot;font-size: 12px;&quot;&gt;ALU_Operand&lt;/font&gt;&lt;/p&gt;" style="text;html=1;align=center;verticalAlign=middle;resizable=0;points=[];autosize=1;strokeColor=none;fillColor=none;fontSize=22;spacing=0;" vertex="1" parent="1">
          <mxGeometry x="513.33" y="2350" width="100" height="80" as="geometry" />
        </mxCell>
        <mxCell id="D6m1xR0_MITMy19pTEcO-112" style="edgeStyle=orthogonalEdgeStyle;shape=connector;rounded=0;jumpStyle=arc;orthogonalLoop=1;jettySize=auto;html=1;entryX=0.719691804172917;entryY=1;entryDx=10;entryDy=0;entryPerimeter=0;labelBackgroundColor=default;strokeColor=#000000;fontFamily=Helvetica;fontSize=5;fontColor=default;endArrow=classic;" edge="1" parent="1" source="D6m1xR0_MITMy19pTEcO-107" target="D6m1xR0_MITMy19pTEcO-94">
          <mxGeometry relative="1" as="geometry" />
        </mxCell>
        <mxCell id="D6m1xR0_MITMy19pTEcO-107" value="&lt;p style=&quot;&quot;&gt;&lt;font style=&quot;font-size: 5px;&quot;&gt;ALU_Operand_b0&lt;/font&gt;&lt;/p&gt;" style="text;html=1;align=right;verticalAlign=middle;resizable=0;points=[];autosize=1;strokeColor=none;fillColor=none;fontSize=8;spacing=2;rotation=-90;" vertex="1" parent="1">
          <mxGeometry x="575.6600000000001" y="2340" width="60" height="40" as="geometry" />
        </mxCell>
        <mxCell id="D6m1xR0_MITMy19pTEcO-111" style="edgeStyle=orthogonalEdgeStyle;shape=connector;rounded=0;jumpStyle=arc;orthogonalLoop=1;jettySize=auto;html=1;entryX=0.43181508250375017;entryY=1;entryDx=10;entryDy=0;entryPerimeter=0;labelBackgroundColor=default;strokeColor=#000000;fontFamily=Helvetica;fontSize=5;fontColor=default;endArrow=classic;" edge="1" parent="1" source="D6m1xR0_MITMy19pTEcO-108" target="D6m1xR0_MITMy19pTEcO-94">
          <mxGeometry relative="1" as="geometry" />
        </mxCell>
        <mxCell id="D6m1xR0_MITMy19pTEcO-108" value="&lt;p style=&quot;&quot;&gt;&lt;font style=&quot;font-size: 5px;&quot;&gt;ALU_Operand_b1&lt;/font&gt;&lt;/p&gt;" style="text;html=1;align=right;verticalAlign=middle;resizable=0;points=[];autosize=1;strokeColor=none;fillColor=none;fontSize=8;spacing=2;rotation=-90;" vertex="1" parent="1">
          <mxGeometry x="533.33" y="2340" width="60" height="40" as="geometry" />
        </mxCell>
        <mxCell id="D6m1xR0_MITMy19pTEcO-110" style="edgeStyle=orthogonalEdgeStyle;shape=connector;rounded=0;jumpStyle=arc;orthogonalLoop=1;jettySize=auto;html=1;entryX=0.1439383608345834;entryY=1;entryDx=10;entryDy=0;entryPerimeter=0;labelBackgroundColor=default;strokeColor=#000000;fontFamily=Helvetica;fontSize=5;fontColor=default;endArrow=classic;" edge="1" parent="1" source="D6m1xR0_MITMy19pTEcO-109" target="D6m1xR0_MITMy19pTEcO-94">
          <mxGeometry relative="1" as="geometry" />
        </mxCell>
        <mxCell id="D6m1xR0_MITMy19pTEcO-109" value="&lt;p style=&quot;&quot;&gt;&lt;font style=&quot;font-size: 5px;&quot;&gt;ALU_Operand_b2&lt;/font&gt;&lt;/p&gt;" style="text;html=1;align=right;verticalAlign=middle;resizable=0;points=[];autosize=1;strokeColor=none;fillColor=none;fontSize=8;spacing=2;rotation=-90;" vertex="1" parent="1">
          <mxGeometry x="491.00000000000006" y="2340" width="60" height="40" as="geometry" />
        </mxCell>
      </root>
    </mxGraphModel>
  </diagram>
</mxfile>
